<?xml version="1.0" encoding="utf-8"?>
<svg
	version="1.1"
	xmlns="http://www.w3.org/2000/svg"
	xmlns:xlink="http://www.w3.org/1999/xlink"
	x="0%" y="0%"
	width="100%" height="100%"
	viewBox="0 0 192.0 192.0"
	enable-background="new 0 0 192.0 192.0"
	xml:space="preserve">
	<path
		fill="#F900BA"
		stroke="#000000"
		fill-opacity="0.000"
		stroke-opacity="1.000"
		fill-rule="nonzero"
		stroke-width="6.222327"
		stroke-linejoin="round"
		stroke-linecap="square"
		d="M153.93,82.67C159.71,36.77,148.14,31.03,119.23,58.28C107.67,53.98,84.54,53.98,72.97,58.08C44.06,31.03,32.49,36.77,38.28,82.67C35.49,88.52,32.71,94.36,32.18,102.22C31.65,110.08,33.38,119.96,38.28,128.57C43.18,137.18,51.26,144.52,61.41,147.69C71.56,150.86,83.78,149.84,96.00,149.92C108.22,150.00,120.45,151.17,130.80,147.69C141.14,144.21,149.59,136.08,154.41,127.47C159.23,118.86,160.41,109.77,159.73,102.22C159.04,94.68,156.48,88.67,153.93,82.67z"/>
	<path
		fill="#000000"
		stroke="#000000"
		fill-opacity="1.000"
		stroke-opacity="1.000"
		fill-rule="nonzero"
		stroke-width="4.6392717"
		stroke-linejoin="round"
		stroke-linecap="square"
		d="M66.18,68.25C57.62,70.51,53.66,74.47,49.78,79.18C44.31,51.85,52.51,49.12,66.18,68.25z"/>
	<path
		fill="#000000"
		stroke="#000000"
		fill-opacity="1.000"
		stroke-opacity="1.000"
		fill-rule="nonzero"
		stroke-width="6.222327"
		stroke-linejoin="round"
		stroke-linecap="square"
		d="M104.43,125.18C99.25,132.43,96.15,132.43,90.97,125.18C86.83,120.01,108.57,120.01,104.43,125.18z"/>
	<path
		fill="#010001"
		stroke="#794C00"
		fill-opacity="1.000"
		stroke-opacity="0.447"
		fill-rule="nonzero"
		stroke-width="0.0"
		stroke-linejoin="round"
		stroke-linecap="square"
		d="M42.11,134.30C44.19,137.96,52.16,145.94,59.13,146.93C80.01,130.12,64.07,130.12,42.11,134.30z"/>
	<path
		fill="#000000"
		stroke="#000000"
		fill-opacity="1.000"
		stroke-opacity="1.000"
		fill-rule="nonzero"
		stroke-width="6.222327"
		stroke-linejoin="round"
		stroke-linecap="square"
		d="M70.49,90.30C76.66,90.30,81.66,97.08,81.66,105.45C81.66,113.82,76.66,120.61,70.49,120.61C64.32,120.61,59.32,113.82,59.32,105.45C59.32,97.08,64.32,90.30,70.49,90.30zM68.36,90.88C65.02,90.88,62.31,94.37,62.31,98.66C62.31,102.96,65.02,106.44,68.36,106.44C71.70,106.44,74.41,102.96,74.41,98.66C74.41,94.37,71.70,90.88,68.36,90.88z"/>
	<path
		fill="#000000"
		stroke="#000000"
		fill-opacity="1.000"
		stroke-opacity="1.000"
		fill-rule="nonzero"
		stroke-width="6.222327"
		stroke-linejoin="round"
		stroke-linecap="square"
		d="M121.51,89.51C127.68,89.51,132.68,96.30,132.68,104.67C132.68,113.04,127.68,119.82,121.51,119.82C115.34,119.82,110.34,113.04,110.34,104.67C110.34,96.30,115.34,89.51,121.51,89.51zM118.05,91.37C114.92,91.37,112.38,94.63,112.38,98.66C112.38,102.69,114.92,105.95,118.05,105.95C121.18,105.95,123.72,102.69,123.72,98.66C123.72,94.63,121.18,91.37,118.05,91.37z"/>
	<path
		fill="#000000"
		stroke="#794C00"
		fill-opacity="1.000"
		stroke-opacity="0.447"
		fill-rule="nonzero"
		stroke-width="0.0"
		stroke-linejoin="round"
		stroke-linecap="square"
		d="M150.99,132.43C149.11,136.47,139.84,144.61,134.63,146.24C113.07,129.69,129.01,129.22,150.99,132.43z"/>
	<path
		fill="#CFCFCF"
		stroke="#000000"
		fill-opacity="1.000"
		stroke-opacity="1.000"
		fill-rule="nonzero"
		stroke-width="3.826277"
		stroke-linejoin="round"
		stroke-linecap="round"
		d="M24.26,102.09L40.20,106.08"/>
	<path
		fill="#CFCFCF"
		stroke="#000000"
		fill-opacity="1.000"
		stroke-opacity="1.000"
		fill-rule="nonzero"
		stroke-width="3.826277"
		stroke-linejoin="round"
		stroke-linecap="round"
		d="M24.26,114.05L40.20,114.05"/>
	<path
		fill="#CFCFCF"
		stroke="#000000"
		fill-opacity="1.000"
		stroke-opacity="1.000"
		fill-rule="nonzero"
		stroke-width="3.826277"
		stroke-linejoin="round"
		stroke-linecap="round"
		d="M24.26,126.01L40.20,122.02"/>
	<path
		fill="#CFCFCF"
		stroke="#000000"
		fill-opacity="1.000"
		stroke-opacity="1.000"
		fill-rule="nonzero"
		stroke-width="3.8262763"
		stroke-linejoin="round"
		stroke-linecap="round"
		d="M167.74,102.09L151.80,106.08"/>
	<path
		fill="#CFCFCF"
		stroke="#000000"
		fill-opacity="1.000"
		stroke-opacity="1.000"
		fill-rule="nonzero"
		stroke-width="3.8262763"
		stroke-linejoin="round"
		stroke-linecap="round"
		d="M167.74,114.05L151.80,114.05"/>
	<path
		fill="#CFCFCF"
		stroke="#000000"
		fill-opacity="1.000"
		stroke-opacity="1.000"
		fill-rule="nonzero"
		stroke-width="3.8262763"
		stroke-linejoin="round"
		stroke-linecap="round"
		d="M167.74,126.01L151.80,122.02"/>
	<path
		fill="#000000"
		stroke="#000000"
		fill-opacity="1.000"
		stroke-opacity="1.000"
		fill-rule="nonzero"
		stroke-width="4.6392717"
		stroke-linejoin="round"
		stroke-linecap="square"
		d="M125.85,68.25C134.40,70.51,138.37,74.47,142.24,79.18C147.71,51.85,139.51,49.12,125.85,68.25z"/>
</svg>