<?xml version="1.0" encoding="utf-8"?>
<svg
	version="1.1"
	xmlns="http://www.w3.org/2000/svg"
	xmlns:xlink="http://www.w3.org/1999/xlink"
	x="0%" y="0%"
	width="100%" height="100%"
	viewBox="0 0 192.0 192.0"
	enable-background="new 0 0 192.0 192.0"
	xml:space="preserve">
<defs>
	<linearGradient id="fillGrad16" x1="85.714%" y1="66.667%" x2="0.000%" y2="22.222%">
   		<stop offset="0.000%" style="stop-color:rgb(133,134,192);stop-opacity:1.000" />
		<stop offset="100.000%" style="stop-color:rgb(133,134,192);stop-opacity:1.000" />
	</linearGradient>

<filter id="glow19" x="-200%" y="-200%" width="600%" height="600%" >
	<feOffset result="offOut" in="SourceGraphic" dx="-1.0199557E-7" dy="2.3333867" />
	<feGaussianBlur result="blurOut" in="offOut" stdDeviation="1.75004" />
	<feFlood flood-color="#E7AEB4" flood-opacity="1.000" result="flood"/>
	<feComposite in="flood" in2="blurOut" operator="in" result="blendOut0"/>
	<feBlend in="SourceGraphic" in2="blendOut0" mode="normal" />
</filter>

	<linearGradient id="fillGrad22" x1="-19.888%" y1="114.623%" x2="80.000%" y2="0.000%">
   		<stop offset="0.000%" style="stop-color:rgb(109,108,109);stop-opacity:1.000" />
		<stop offset="100.000%" style="stop-color:rgb(109,108,109);stop-opacity:1.000" />
	</linearGradient>

	<linearGradient id="fillGrad25" x1="14.286%" y1="66.667%" x2="100.000%" y2="22.222%">
   		<stop offset="0.000%" style="stop-color:rgb(133,134,192);stop-opacity:1.000" />
		<stop offset="100.000%" style="stop-color:rgb(133,134,192);stop-opacity:1.000" />
	</linearGradient>

	<linearGradient id="fillGrad30" x1="119.888%" y1="114.623%" x2="20.000%" y2="0.000%">
   		<stop offset="0.000%" style="stop-color:rgb(109,108,109);stop-opacity:1.000" />
		<stop offset="100.000%" style="stop-color:rgb(109,108,109);stop-opacity:1.000" />
	</linearGradient>

</defs>
	<path
		fill="#000937"
		
		fill-opacity="0.247"
		stroke-opacity="1.000"
		fill-rule="nonzero"
		stroke-width="0.0"
		stroke-linejoin="round"
		stroke-linecap="square"
		d="M164.59,77.72C171.43,23.37,157.74,16.58,118.69,50.68C109.40,45.58,82.68,45.31,72.94,51.83C34.50,16.58,20.81,23.37,27.65,77.72C24.39,84.88,21.13,92.03,20.44,100.87C19.74,109.72,21.61,120.25,27.65,132.07C33.69,143.88,43.90,156.99,56.00,160.00C68.10,163.01,82.10,155.91,96.00,156.00C109.90,156.09,123.69,163.38,136.00,160.00C148.31,156.62,159.15,142.58,165.16,130.76C171.17,118.94,172.35,109.35,171.45,100.87C170.55,92.40,167.57,85.06,164.59,77.72z"/>
	<path
		fill="#F9F1F7"
		
		fill-opacity="1.000"
		stroke-opacity="1.000"
		fill-rule="nonzero"
		stroke-width="0.0"
		stroke-linejoin="round"
		stroke-linecap="square"
		d="M154.13,84.50C159.94,38.44,148.33,32.68,119.32,60.03C107.71,55.71,84.50,55.71,72.89,59.83C43.87,32.68,32.27,38.44,38.07,84.50C35.28,90.37,32.49,96.24,31.96,104.13C31.42,112.02,33.15,121.93,38.07,130.57C42.99,139.21,51.10,146.58,61.28,149.76C71.47,152.94,83.73,151.92,96.00,152.00C108.27,152.08,120.54,153.26,130.92,149.76C141.30,146.27,149.79,138.11,154.62,129.47C159.46,120.82,160.64,111.71,159.96,104.13C159.27,96.56,156.70,90.53,154.13,84.50z"/>
	<path
		transform = "rotate(-0.00 54.40 65.60)"
		fill="url(#fillGrad16)"
		
		fill-opacity="1.0"
		stroke-opacity="1.000"
		fill-rule="nonzero"
		stroke-width="0.0"
		stroke-linejoin="round"
		stroke-linecap="square"
		d="M67.65,66.63C55.13,69.93,49.33,75.74,43.65,82.63C35.65,42.63,47.65,38.63,67.65,66.63z"/>
	<path
		fill="#E7AEB4"
		
		fill-opacity="1.000"
		stroke-opacity="1.000"
		fill-rule="nonzero"
		stroke-width="0.0"
		filter="url(#glow19)"
		stroke-linejoin="round"
		stroke-linecap="square"
		d="M104.46,127.17C99.26,134.44,96.15,134.44,90.95,127.17C86.80,121.98,108.61,121.98,104.46,127.17z"/>
	<path
		transform = "rotate(-0.00 55.35 141.50)"
		fill="url(#fillGrad22)"
		stroke="#794C00"
		fill-opacity="1.0"
		stroke-opacity="0.447"
		fill-rule="nonzero"
		stroke-width="0.0"
		stroke-linejoin="round"
		stroke-linecap="square"
		d="M41.92,136.32C44.00,140.00,52.00,148.00,59.00,149.00C79.96,132.13,63.96,132.13,41.92,136.32z"/>
	<path
		transform = "rotate(-358.37 137.32 65.80)"
		fill="url(#fillGrad25)"
		
		fill-opacity="1.0"
		stroke-opacity="1.000"
		fill-rule="nonzero"
		stroke-width="0.0"
		stroke-linejoin="round"
		stroke-linecap="square"
		d="M124.14,66.20C136.66,69.51,142.47,75.31,148.14,82.20C156.14,42.20,142.73,41.18,124.14,66.20z"/>
	<path
		fill="#6D6C6D"
		
		fill-opacity="1.000"
		stroke-opacity="1.000"
		fill-rule="nonzero"
		stroke-width="0.0"
		stroke-linejoin="round"
		stroke-linecap="square"
		d="M70.40,92.17C76.59,92.17,81.60,98.97,81.60,107.37C81.60,115.77,76.59,122.58,70.40,122.58C64.21,122.58,59.19,115.77,59.19,107.37C59.19,98.97,64.21,92.17,70.40,92.17z"/>
	<path
		fill="#6D6C6D"
		fill-opacity="1.000"
		stroke-opacity="1.000"
		fill-rule="nonzero"
		stroke-width="0.0"
		stroke-linejoin="round"
		stroke-linecap="square"
		d="M121.60,91.37C127.79,91.37,132.81,98.18,132.81,106.58C132.81,114.98,127.79,121.79,121.60,121.79C115.41,121.79,110.40,114.98,110.40,106.58C110.40,98.18,115.41,91.37,121.60,91.37z"/>
	<path
		transform = "rotate(-1.68 137.99 140.48)"
		fill="url(#fillGrad30)"
		stroke="#794C00"
		fill-opacity="1.0"
		stroke-opacity="0.447"
		fill-rule="nonzero"
		stroke-width="0.0"
		stroke-linejoin="round"
		stroke-linecap="square"
		d="M151.36,134.84C149.36,138.84,139.82,146.72,134.54,148.21C113.40,130.97,129.40,130.97,151.36,134.84z"/>
	<path
		fill="#CFCFCF"
		stroke="#794C00"
		fill-opacity="1.000"
		stroke-opacity="0.447"
		fill-rule="nonzero"
		stroke-width="0.0"
		stroke-linejoin="round"
		stroke-linecap="square"
		d="M66.08,94.59C68.03,94.59,69.60,96.38,69.60,98.59C69.60,100.79,68.03,102.58,66.08,102.58C64.13,102.58,62.55,100.79,62.55,98.59C62.55,96.38,64.13,94.59,66.08,94.59z"/>
	<path
		fill="#CFCFCF"
		stroke="#6D6C6D"
		fill-opacity="1.000"
		stroke-opacity="1.000"
		fill-rule="nonzero"
		stroke-width="3.84"
		stroke-linejoin="round"
		stroke-linecap="round"
		d="M24.00,104.00L40.00,108.00"/>
	<path
		fill="#CFCFCF"
		stroke="#6D6C6D"
		fill-opacity="1.000"
		stroke-opacity="1.000"
		fill-rule="nonzero"
		stroke-width="3.84"
		stroke-linejoin="round"
		stroke-linecap="round"
		d="M24.00,116.00L40.00,116.00"/>
	<path
		fill="#CFCFCF"
		stroke="#6D6C6D"
		fill-opacity="1.000"
		stroke-opacity="1.000"
		fill-rule="nonzero"
		stroke-width="3.84"
		stroke-linejoin="round"
		stroke-linecap="round"
		d="M24.00,128.00L40.00,124.00"/>
	<path
		fill="#CFCFCF"
		stroke="#794C00"
		fill-opacity="1.000"
		stroke-opacity="0.447"
		fill-rule="nonzero"
		stroke-width="0.0"
		stroke-linejoin="round"
		stroke-linecap="square"
		d="M118.94,94.59C120.88,94.59,122.46,96.37,122.46,98.58C122.46,100.79,120.88,102.58,118.94,102.58C116.99,102.58,115.41,100.79,115.41,98.58C115.41,96.37,116.99,94.59,118.94,94.59z"/>
	<path
		fill="#CFCFCF"
		stroke="#794C00"
		fill-opacity="1.000"
		stroke-opacity="0.447"
		fill-rule="nonzero"
		stroke-width="0.0"
		stroke-linejoin="round"
		stroke-linecap="square"
		d="M66.08,94.59C68.03,94.59,69.60,96.38,69.60,98.59C69.60,100.79,68.03,102.58,66.08,102.58C64.13,102.58,62.55,100.79,62.55,98.59C62.55,96.38,64.13,94.59,66.08,94.59z"/>
	<path
		fill="#CFCFCF"
		stroke="#6D6C6D"
		fill-opacity="1.000"
		stroke-opacity="1.000"
		fill-rule="nonzero"
		stroke-width="3.8399992"
		stroke-linejoin="round"
		stroke-linecap="round"
		d="M168.00,104.00L152.00,108.00"/>
	<path
		fill="#CFCFCF"
		stroke="#6D6C6D"
		fill-opacity="1.000"
		stroke-opacity="1.000"
		fill-rule="nonzero"
		stroke-width="3.8399992"
		stroke-linejoin="round"
		stroke-linecap="round"
		d="M168.00,116.00L152.00,116.00"/>
	<path
		fill="#CFCFCF"
		stroke="#6D6C6D"
		fill-opacity="1.000"
		stroke-opacity="1.000"
		fill-rule="nonzero"
		stroke-width="3.8399992"
		stroke-linejoin="round"
		stroke-linecap="round"
		d="M168.00,128.00L152.00,124.00"/>
</svg>